<?xml version="1.0" standalone="no"?><!DOCTYPE svg PUBLIC "-//W3C//DTD SVG 1.1//EN" "http://www.w3.org/Graphics/SVG/1.1/DTD/svg11.dtd"><svg t="1677120992238" class="icon" viewBox="0 0 1024 1024" version="1.1" xmlns="http://www.w3.org/2000/svg" p-id="2299" xmlns:xlink="http://www.w3.org/1999/xlink" width="300" height="300"><path d="M917.333333 669.44v-2.56l-64-256a21.333333 21.333333 0 0 0-41.386666 10.24l56.746666 229.546667H640a21.333333 21.333333 0 0 0-21.333333 21.333333 106.666667 106.666667 0 0 1-213.333334 0 21.333333 21.333333 0 0 0-21.333333-21.333333H155.306667L213.333333 421.12a21.333333 21.333333 0 0 0-42.666666-10.24l-64 256v175.786667a106.666667 106.666667 0 0 0 106.666666 106.666666h597.333334a106.666667 106.666667 0 0 0 106.666666-106.666666v-170.666667-2.56z m-42.666666 173.226667a64 64 0 0 1-64 64H213.333333a64 64 0 0 1-64-64v-149.333334h215.04a149.333333 149.333333 0 0 0 295.253334 0H874.666667z" p-id="2300" fill="#707070"></path><path d="M256 629.333333a21.333333 21.333333 0 0 0 21.333333-21.333333V232.746667l115.413334-115.413334H682.666667a64 64 0 0 1 64 64v426.666667a21.333333 21.333333 0 0 0 42.666666 0v-426.666667a106.666667 106.666667 0 0 0-106.666666-106.666666H384a21.333333 21.333333 0 0 0-15.146667 6.186666l-128 128a21.333333 21.333333 0 0 0-6.186666 15.146667v384a21.333333 21.333333 0 0 0 21.333333 21.333333z" p-id="2301" fill="#707070"></path><path d="M640 202.666667H384a21.333333 21.333333 0 0 0 0 42.666666h256a21.333333 21.333333 0 0 0 0-42.666666zM640 330.666667H384a21.333333 21.333333 0 0 0 0 42.666666h256a21.333333 21.333333 0 0 0 0-42.666666zM640 458.666667H384a21.333333 21.333333 0 0 0 0 42.666666h256a21.333333 21.333333 0 0 0 0-42.666666z" p-id="2302" fill="#707070"></path></svg>