<?xml version="1.0" standalone="no"?><!DOCTYPE svg PUBLIC "-//W3C//DTD SVG 1.1//EN" "http://www.w3.org/Graphics/SVG/1.1/DTD/svg11.dtd"><svg t="1677139335217" class="icon" viewBox="0 0 1024 1024" version="1.1" xmlns="http://www.w3.org/2000/svg" p-id="15121" xmlns:xlink="http://www.w3.org/1999/xlink" width="300" height="300"><path d="M512 512m-448 0a448 448 0 1 0 896 0 448 448 0 1 0-896 0Z" fill="#46A9F7" p-id="15122" data-spm-anchor-id="a313x.7781069.0.i10" class="selected"></path><path d="M481.492 756.408c-21.1-2.988-33.31-21.692-34.072-42.99-0.918-25.66-1.97-68.102-2.42-134.426-66.324-0.438-108.75-1.486-134.42-2.408-21.304-0.764-40.008-12.974-42.986-34.076-1.188-8.354-1.994-18.468-1.994-30.508s0.806-22.154 1.994-30.508c2.98-21.1 21.682-33.312 42.986-34.076 25.67-0.922 68.096-1.97 134.42-2.408 0.45-66.324 1.502-108.768 2.42-134.426 0.762-21.3 12.97-40.002 34.072-42.99 8.354-1.184 18.456-1.992 30.508-1.992s22.154 0.808 30.508 1.992c21.1 2.988 33.31 21.692 34.072 42.99 0.918 25.66 1.97 68.102 2.42 134.426 66.324 0.438 108.75 1.486 134.42 2.408 21.304 0.764 40.008 12.974 42.986 34.076 1.188 8.354 1.994 18.468 1.994 30.508s-0.806 22.154-1.994 30.508c-2.98 21.1-21.682 33.312-42.986 34.076-25.67 0.922-68.096 1.97-134.42 2.408-0.45 66.324-1.502 108.768-2.42 134.426-0.762 21.3-12.97 40.002-34.072 42.99-8.354 1.184-18.456 1.992-30.508 1.992s-22.154-0.808-30.508-1.992z" fill="#ffffff" p-id="15123" data-spm-anchor-id="a313x.7781069.0.i9" class=""></path></svg>