<?xml version="1.0" standalone="no"?><!DOCTYPE svg PUBLIC "-//W3C//DTD SVG 1.1//EN" "http://www.w3.org/Graphics/SVG/1.1/DTD/svg11.dtd"><svg t="1677749429731" class="icon" viewBox="0 0 1024 1024" version="1.1" xmlns="http://www.w3.org/2000/svg" p-id="1017" xmlns:xlink="http://www.w3.org/1999/xlink" width="300" height="300"><path d="M662.171 827.076H525.543c-30.879 0-56-25.121-56-56V518.87c0-30.878 25.122-56 56-56h136.628v364.206zM525.543 510.87c-4.411 0-8.001 3.589-8.001 8v252.206c0 4.411 3.59 8 8.001 8h88.628V510.87h-88.628z" fill="#46A9F7" p-id="1018" data-spm-anchor-id="a313x.7781069.0.i1" class="selected"></path><path d="M577.82 271.62h-259.4c-48.61 0-88.91 36.34-95.15 83.27-0.09 0.71-0.18 1.43-0.26 2.15-0.39 3.47-0.59 7-0.59 10.58v115.31c2.52-0.59 5.15-0.91 7.85-0.91 13.71 0 25.57 8.08 31.06 19.73a34.082 34.082 0 0 1 4.32 16.65v22.88h-43.23V581h64V367.62c0-17.64 14.36-32 32-32h259.4c17.64 0 32 14.36 32 32v495.94c0 17.65-14.36 32-32 32h-259.4c-1.41 0-2.8-0.09-4.17-0.27a31.869 31.869 0 0 1-11.95 2.31h-73.64c12.79 33.62 43.95 58.25 81.15 61.57 0.01 0.01 0.02 0.01 0.03 0 2.83 0.26 5.69 0.39 8.58 0.39h259.4c52.93 0 96-43.06 96-96V367.62c0-52.93-43.07-96-96-96z" fill="#54626C" p-id="1019"></path><path d="M555.454 325.469h-216V256.8c0-59.551 48.449-108 108-108s108 48.448 108 108v68.669z m-167.999-48h120V256.8c0-33.084-26.916-60-60-60s-60 26.916-60 60v20.669zM312.6 541.95c-3.72-0.44-7.51-0.67-11.35-0.67H160.21c-4.16 0-8.26 0.27-12.28 0.78-47.15 6.05-83.72 46.44-83.72 95.22v226.28c0 52.93 43.07 96 96 96h141.04c2.89 0 5.74-0.13 8.56-0.39 0.01 0.01 0.02 0.01 0.03 0 3.78-0.33 7.5-0.88 11.14-1.65 32.93-6.91 59.72-30.75 70.78-61.96 0.24-0.67 0.47-1.36 0.7-2.04 3.11-9.43 4.79-19.5 4.79-29.96V637.28c0-49.1-37.05-89.7-84.65-95.33zM128.21 863.56V637.28c0-17.65 14.36-32 32-32h141.04c17.64 0 32 14.35 32 32v226.28c0 13.42-8.31 24.94-20.05 29.69a31.869 31.869 0 0 1-11.95 2.31H160.21c-17.64 0-32-14.36-32-32z" fill="#54626C" p-id="1020"></path><path d="M312.6 516.36v48.79h-48v-23.87h1.05V518.4c0-6.04-1.57-11.72-4.32-16.65-5.49-11.65-17.35-19.73-31.06-19.73-2.7 0-5.33 0.32-7.85 0.91-0.35 0.08-0.7 0.17-1.05 0.26-14.63 3.93-25.44 17.31-25.44 33.17v48.79h-48v-48.79c0-42.6 32.52-77.75 74.03-81.92 0.15-0.01 0.31-0.03 0.46-0.04 0.28-0.03 0.56-0.06 0.85-0.07 2.31-0.21 4.65-0.31 7-0.31 21.17 0 40.5 8.03 55.1 21.22 0.35 0.32 0.7 0.64 1.05 0.97 16.1 15.02 26.18 36.43 26.18 60.15zM820.081 959.558h-90.96c-13.255 0-24-10.745-24-24s10.745-24 24-24h90.96c3.985 0 7.394-2.978 7.928-6.927l39.771-293.785c0.424-3.133-1.01-5.315-1.903-6.337s-2.862-2.736-6.024-2.736h-130.73c-13.255 0-24-10.745-24-24s10.745-24 24-24h130.73a55.996 55.996 0 0 1 55.494 63.512L875.576 911.07c-3.743 27.643-27.6 48.488-55.495 48.488z" fill="#54626C" p-id="1021"></path><path d="M769.636 578.361c-1.442-1.4-2.639-4.18-2.639-6.19V263.953c0-30.928 25.072-56 56-56h105.095c13.455 0 24.791 11.011 24.536 24.464-0.247 13.041-10.896 23.536-23.996 23.536H822.997a8 8 0 0 0-8 8v300.093c0 20.084-24.671 34.407-45.361 14.315z" fill="#54626C" p-id="1022"></path><path d="M928.743 336.1H810.794c-13.255 0-24-10.745-24-24s10.745-24 24-24h117.949c13.255 0 24 10.745 24 24s-10.745 24-24 24zM928.743 416H810.794c-13.255 0-24-10.745-24-24s10.745-24 24-24h117.949c13.255 0 24 10.745 24 24 0 13.254-10.745 24-24 24zM928.743 496.047H810.794c-13.255 0-24-10.745-24-24s10.745-24 24-24h117.949c13.255 0 24 10.745 24 24s-10.745 24-24 24z" fill="#54626C" p-id="1023"></path><path d="M424.087 111.652h48v62.418h-48z" fill="#54626C" p-id="1024"></path><path d="M544.756 87.946c0 13.255-10.745 24-24 24H374.153c-13.255 0-24-10.745-24-24s10.745-24 24-24h146.603c13.255 0 24 10.746 24 24z" fill="#54626C" p-id="1025"></path><path d="M187.188 796.5c-13.255 0-24-10.745-24-24v-90c0-13.255 10.745-24 24-24s24 10.745 24 24v90c0 13.255-10.745 24-24 24z" fill="#46A9F7" p-id="1026" data-spm-anchor-id="a313x.7781069.0.i0" class="selected"></path></svg>