<?xml version="1.0" standalone="no"?><!DOCTYPE svg PUBLIC "-//W3C//DTD SVG 1.1//EN" "http://www.w3.org/Graphics/SVG/1.1/DTD/svg11.dtd"><svg t="1675144217262" class="icon" viewBox="0 0 1024 1024" version="1.1" xmlns="http://www.w3.org/2000/svg" p-id="1486" xmlns:xlink="http://www.w3.org/1999/xlink" width="300" height="300"><path d="M0 0m349.090909 0l325.818182 0q349.090909 0 349.090909 349.090909l0 325.818182q0 349.090909-349.090909 349.090909l-325.818182 0q-349.090909 0-349.090909-349.090909l0-325.818182q0-349.090909 349.090909-349.090909Z" fill="#F7A647" p-id="1487"></path><path d="M588.939636 244.363636a64.791273 64.791273 0 0 1 64.861091 64.733091v417.442909A64.791273 64.791273 0 0 1 588.939636 791.272727H297.588364A64.791273 64.791273 0 0 1 232.727273 726.539636V309.096727A64.791273 64.791273 0 0 1 297.588364 244.363636z m160.034909 162.338909A42.24 42.24 0 0 1 791.272727 448.930909v294.050909a42.263273 42.263273 0 0 1-42.298182 42.228364h-80.954181c2.234182-0.093091 29.556364-2.304 29.556363-56.308364V406.702545z m-179.54909 227.688728H331.205818a24.936727 24.936727 0 0 0-24.948363 24.901818c0 13.742545 11.170909 24.901818 24.948363 24.901818h238.219637a24.936727 24.936727 0 0 0 24.948363-24.901818c0-13.754182-11.170909-24.901818-24.948363-24.901818z m-0.465455-113.047273H331.717818a25.390545 25.390545 0 0 0-25.425454 25.367273c0 14.021818 11.380364 25.367273 25.425454 25.367272h237.242182a25.390545 25.390545 0 0 0 25.413818-25.367272c0-14.021818-11.368727-25.367273-25.413818-25.367273z m-184.901818-145.303273h-56.820364a20.945455 20.945455 0 0 0-20.945454 20.945455v50.606545a20.945455 20.945455 0 0 0 20.945454 20.945455h56.832a20.945455 20.945455 0 0 0 20.945455-20.945455v-50.606545a20.945455 20.945455 0 0 0-20.945455-20.945455z" fill="#FFFFFF" p-id="1488"></path></svg>