<?xml version="1.0" standalone="no"?><!DOCTYPE svg PUBLIC "-//W3C//DTD SVG 1.1//EN" "http://www.w3.org/Graphics/SVG/1.1/DTD/svg11.dtd"><svg t="1675145618483" class="icon" viewBox="0 0 1024 1024" version="1.1" xmlns="http://www.w3.org/2000/svg" p-id="1647" xmlns:xlink="http://www.w3.org/1999/xlink" width="300" height="300"><path d="M0 0m349.090909 0l325.818182 0q349.090909 0 349.090909 349.090909l0 325.818182q0 349.090909-349.090909 349.090909l-325.818182 0q-349.090909 0-349.090909-349.090909l0-325.818182q0-349.090909 349.090909-349.090909Z" fill="#F96C17" p-id="1648"></path><path d="M527.232 338.618182l1.710545 1.408 186.507637 161.687273h0.139636a56.855273 56.855273 0 0 1 19.560727 40.110545l0.069819 2.909091v177.92c0 24.459636-19.246545 44.416-43.461819 45.637818l-2.362181 0.058182h-365.614546a45.765818 45.765818 0 0 1-45.765818-43.333818l-0.058182-2.350546V544.721455a56.901818 56.901818 0 0 1 17.489455-41.053091l2.152727-1.954909 186.298182-161.687273a34.327273 34.327273 0 0 1 43.333818-1.396364z m-21.131636 197.888c-63.045818 0-114.164364 47.581091-114.164364 81.582545 0 33.396364 49.28 79.557818 110.731636 81.221818l3.432728 0.046546c63.371636 0 114.501818-48.290909 114.501818-81.268364 0-32.954182-51.456-81.582545-114.501818-81.582545z m-43.310546 49.152a53.504 53.504 0 0 1 52.747637-27.287273h0.116363a50.350545 50.350545 0 0 1 47.441455 53.050182c0 1.92-0.325818 3.84-0.325818 5.748364a53.341091 53.341091 0 0 1-38.213819 45.370181 53.550545 53.550545 0 0 1-56.645818-17.861818 53.178182 53.178182 0 0 1-5.12-59.019636z m77.032727-352.349091l80.965819 70.551273v-37.131637c0-12.590545 10.228364-22.807273 22.853818-22.853818h22.842182c12.660364 0 22.923636 10.24 22.923636 22.853818v96.465455l128.814545 111.941818c7.586909 6.632727 10.286545 17.221818 6.81891 26.647273a23.621818 23.621818 0 0 1-22.260364 15.720727h-13.090909a57.134545 57.134545 0 0 1-37.445818-13.963636L543.941818 322.792727a57.344 57.344 0 0 0-75.089454 0L260.538182 503.540364a57.250909 57.250909 0 0 1-37.515637 13.963636h-13.090909a23.621818 23.621818 0 0 1-22.260363-15.732364 24.110545 24.110545 0 0 1 6.865454-26.624l278.621091-241.512727a51.048727 51.048727 0 0 1 66.641455-0.325818z" fill="#FFFFFF" p-id="1649"></path></svg>