<?xml version="1.0" standalone="no"?><!DOCTYPE svg PUBLIC "-//W3C//DTD SVG 1.1//EN" "http://www.w3.org/Graphics/SVG/1.1/DTD/svg11.dtd"><svg t="1677120874714" class="icon" viewBox="0 0 1024 1024" version="1.1" xmlns="http://www.w3.org/2000/svg" p-id="1904" xmlns:xlink="http://www.w3.org/1999/xlink" width="300" height="300"><path d="M746.666667 42.666667H277.333333a106.666667 106.666667 0 0 0-106.666666 106.666666v725.333334a106.666667 106.666667 0 0 0 106.666666 106.666666h469.333334a106.666667 106.666667 0 0 0 106.666666-106.666666V149.333333a106.666667 106.666667 0 0 0-106.666666-106.666666z m64 832a64 64 0 0 1-64 64H277.333333a64 64 0 0 1-64-64V149.333333a64 64 0 0 1 64-64h469.333334a64 64 0 0 1 64 64z" p-id="1905" fill="#17abe3"></path><path d="M384 320h341.333333v42.666667H384zM384 490.666667h341.333333v42.666666H384zM384 661.333333h340.053333v42.666667H384zM298.666667 320h42.666666v42.666667h-42.666666zM298.666667 490.666667h42.666666v42.666666h-42.666666zM298.666667 661.333333h42.666666v42.666667h-42.666666z" p-id="1906" fill="#17abe3"></path></svg>