<?xml version="1.0" standalone="no"?><!DOCTYPE svg PUBLIC "-//W3C//DTD SVG 1.1//EN" "http://www.w3.org/Graphics/SVG/1.1/DTD/svg11.dtd"><svg t="1673593824470" class="icon" viewBox="0 0 1024 1024" version="1.1" xmlns="http://www.w3.org/2000/svg" p-id="5385" xmlns:xlink="http://www.w3.org/1999/xlink" width="300" height="300"><path d="M512.4 516m-258 0a258 258 0 1 0 516 0 258 258 0 1 0-516 0Z" fill="#FFFFFF" p-id="5386"></path><path d="M512.4 274c32.7 0 64.4 6.4 94.2 19 28.8 12.2 54.7 29.6 76.9 51.9 22.2 22.2 39.7 48.1 51.9 76.9 12.6 29.8 19 61.5 19 94.2s-6.4 64.4-19 94.2c-12.2 28.8-29.6 54.7-51.9 76.9-22.2 22.2-48.1 39.7-76.9 51.9-29.8 12.6-61.5 19-94.2 19s-64.4-6.4-94.2-19c-28.8-12.2-54.7-29.6-76.9-51.9-22.2-22.2-39.7-48.1-51.9-76.9-12.6-29.8-19-61.5-19-94.2s6.4-64.4 19-94.2c12.2-28.8 29.6-54.7 51.9-76.9 22.2-22.2 48.1-39.7 76.9-51.9 29.8-12.6 61.5-19 94.2-19m0-16c-142.5 0-258 115.5-258 258s115.5 258 258 258 258-115.5 258-258-115.5-258-258-258z" fill="" p-id="5387"></path><path d="M416.3 429.2m-18 0a18 18 0 1 0 36 0 18 18 0 1 0-36 0Z" fill="" p-id="5388"></path><path d="M608.4 429.2m-18 0a18 18 0 1 0 36 0 18 18 0 1 0-36 0Z" fill="" p-id="5389"></path><path d="M701.4 340.1c29.6-2.3 72.5 5.1 119.3 20.7 84.2 28.3 139.8 62.1 114.5 118-28.3 62.6-87.1 32.3-157.6-12-4.5-2.8-9-5.7-13.4-8.5-10.2-44.9-32.3-85.5-62.8-118.2z" fill="#666666" p-id="5390"></path><path d="M712.5 339.7c28.7 0 67 7.3 108.2 21.1 84.2 28.3 139.8 62.1 114.5 118-11.5 25.5-28.1 35.6-48.5 35.6-29.7 0-67.3-21.3-109.1-47.6-4.5-2.8-9-5.7-13.4-8.5-10.3-44.9-32.3-85.5-62.9-118.2 3.6-0.3 7.3-0.4 11.2-0.4m0-16c-4.3 0-8.5 0.2-12.4 0.5-6.1 0.5-11.4 4.4-13.7 10.1-2.2 5.7-1 12.2 3.2 16.7 29.1 31.2 49.5 69.6 59 110.9 0.9 4.1 3.5 7.7 7 9.9 4.4 2.8 8.9 5.6 13.4 8.5 18.7 11.8 40.6 25.1 60.8 34.6 22.2 10.4 40.7 15.5 56.8 15.5 13.9 0 26.2-3.7 36.8-11.1 10.7-7.5 19.6-18.9 26.3-33.9 9.3-20.7 10-40.3 2.1-58.5-7.7-17.7-23.4-33.4-47.9-47.8-19.4-11.4-45-22.4-78.3-33.5-42.1-14.1-82.3-21.9-113.1-21.9z" fill="" p-id="5391"></path><path d="M323.3 340.7c-29.6-2.2-72.5 5.3-119.2 21.2C119.9 390.5 64.5 424.5 90 480.3c28.5 62.5 87.3 32 157.5-12.6 4.5-2.9 9-5.7 13.3-8.5 10.2-45 32.1-85.7 62.5-118.5z" fill="#666666" p-id="5392"></path><path d="M312.8 340.3c3.7 0 7.2 0.1 10.5 0.4-30.4 32.8-52.3 73.5-62.4 118.5-4.4 2.8-8.8 5.6-13.3 8.5-41.8 26.5-79.5 48-109.1 48-20.3 0-36.8-10-48.4-35.4-25.5-55.9 30-89.9 114.1-118.4 41.3-14.1 79.8-21.6 108.6-21.6m0-16c-30.9 0-71.3 8-113.9 22.4-33.2 11.3-58.8 22.3-78.1 33.8-24.4 14.5-40 30.2-47.7 47.9-7.8 18.2-7.1 37.8 2.3 58.5 6.8 14.9 15.6 26.2 26.3 33.7 10.5 7.4 22.8 11.1 36.6 11.1 16.1 0 34.7-5.1 56.9-15.6 20.2-9.6 42.1-23 60.8-34.9 4.5-2.9 9-5.7 13.4-8.5 3.5-2.3 6.1-5.9 7-10 9.3-41.4 29.6-79.8 58.6-111.1 4.2-4.5 5.4-11 3.1-16.7-2.3-5.7-7.6-9.6-13.7-10.1-3.6-0.3-7.6-0.5-11.6-0.5z" fill="" p-id="5393"></path><path d="M331.8 320.1c0 1.1-0.1 2.3-0.1 3.4 0 2.7 0.1 5.3 0.3 7.9C378.6 286 442.2 258 512.4 258c65.1 0 124.5 24.1 169.9 63.8 3.6 1.1 7.4 1.7 11.3 1.7 21 0 38-17 38-38 0-13.5-7.1-25.4-17.7-32.1-4-30.4-30-53.9-61.5-53.9-6.3 0-12.3 0.9-18 2.7-12.3-13.2-28.1-22.8-45.5-27.6-14-19.4-38.5-29.7-63.3-24.3-13.6 2.9-25.1 10.1-33.6 19.8-6.5-5.4-14.9-8.6-24-8.6-12.6 0-23.7 6.1-30.7 15.6-2.4-0.3-4.9-0.4-7.3-0.4-29.4 0-54 20.5-60.4 48-2.9-0.7-5.9-1.1-9.1-1.1-19 0-34.8 14-37.6 32.3-8.5 7-13.9 17.5-13.9 29.4-0.1 15.6 9.3 29 22.8 34.8z" fill="#B3B3B3" p-id="5394"></path><path d="M538.5 148.9c20.1 0 38.7 9.8 50.2 25.7 17.4 4.8 33.2 14.4 45.5 27.6 5.7-1.7 11.8-2.7 18-2.7 31.5 0 57.5 23.5 61.5 53.9 10.7 6.7 17.7 18.6 17.7 32.1 0 21-17 38-38 38-3.9 0-7.7-0.6-11.3-1.7-45.2-39.7-104.7-63.8-169.7-63.8-70.2 0-133.8 28-180.3 73.5-0.2-2.6-0.3-5.3-0.3-7.9 0-1.1 0-2.3 0.1-3.4-13.5-5.8-23-19.3-23-34.9 0-11.8 5.4-22.4 13.9-29.4 2.8-18.3 18.5-32.3 37.6-32.3 3.1 0 6.2 0.4 9.1 1.1 6.4-27.5 31-48 60.4-48 2.5 0 4.9 0.2 7.3 0.4 6.9-9.4 18.1-15.6 30.7-15.6 9.1 0 17.5 3.2 24 8.6 8.5-9.7 20-16.9 33.6-19.8 4.3-1 8.7-1.4 13-1.4m0-16c-5.5 0-11.1 0.6-16.5 1.8-12.1 2.6-23.1 7.9-32.5 15.5-6.8-3-14.2-4.6-21.8-4.6-14 0-27.5 5.5-37.4 15.1h-0.6c-17.7 0-35.1 6.1-48.9 17.2-9.9 7.9-17.6 18.2-22.6 29.7-12.3 0.5-24 5.1-33.3 13.2-8.2 7.1-14 16.5-16.8 26.8-9.8 10-15.3 23.5-15.3 37.7 0 17.9 8.8 34.3 23.1 44.3 0.1 1.1 0.1 2.2 0.2 3.3 0.5 6.2 4.5 11.5 10.3 13.7 1.8 0.7 3.7 1 5.6 1 4.1 0 8.1-1.6 11.2-4.6 45.5-44.4 105.5-68.9 169.1-68.9 29.8 0 59 5.4 86.6 16 26.7 10.2 51.1 25 72.7 43.9 1.7 1.5 3.7 2.6 5.8 3.2 5.2 1.6 10.6 2.4 16 2.4 29.8 0 54-24.2 54-54 0-16.1-7-31-19.1-41.2-3.6-15.9-12.1-30.3-24.4-41.2a77.943 77.943 0 0 0-51.6-19.5c-4.4 0-8.8 0.4-13.1 1.1-11.8-10.7-25.8-18.9-41-23.9-14.7-17.7-36.6-28-59.7-28z" fill="" p-id="5395"></path></svg>