<?xml version="1.0" standalone="no"?><!DOCTYPE svg PUBLIC "-//W3C//DTD SVG 1.1//EN" "http://www.w3.org/Graphics/SVG/1.1/DTD/svg11.dtd"><svg t="1677748745678" class="icon" viewBox="0 0 1024 1024" version="1.1" xmlns="http://www.w3.org/2000/svg" p-id="6435" xmlns:xlink="http://www.w3.org/1999/xlink" width="300" height="300"><path d="M626.114208 296.397651a55.648363 55.648363 0 0 1-11.964398-60.934958 35.058469 35.058469 0 0 0-8.625497-38.39737 37.006162 37.006162 0 0 0-52.309461 0l-356.149524 356.149524a37.006162 37.006162 0 0 0 0 52.309462 35.058469 35.058469 0 0 0 38.39737 8.625496 55.648363 55.648363 0 0 1 72.899356 72.899356 35.893194 35.893194 0 0 0 8.625496 38.675612L417.432846 827.283036a37.006162 37.006162 0 0 0 52.309461 0l357.540734-356.427766a37.006162 37.006162 0 0 0 0-52.309462l-101.558263-101.558263a35.893194 35.893194 0 0 0-38.675612-8.625496 55.648363 55.648363 0 0 1-60.934958-11.964398z" fill="#46A9F7" p-id="6436" data-spm-anchor-id="a313x.7781069.0.i13" class=""></path><path d="M1001.74066 380.704921l-169.171025-169.449266a78.464192 78.464192 0 0 0-86.533204-14.468574 58.987265 58.987265 0 0 1-76.794742-76.794741 78.18595 78.18595 0 0 0-14.746816-86.533205l-11.129673-11.129673a75.403532 75.403532 0 0 0-107.123099 0L22.329467 536.242096a75.403532 75.403532 0 0 0 0 107.1231l11.129673 11.129672a78.18595 78.18595 0 0 0 86.533204 14.746817 58.987265 58.987265 0 0 1 76.794742 76.794741 78.742434 78.742434 0 0 0 14.468574 86.533205L380.704926 1001.740655a76.238258 76.238258 0 0 0 107.123099 0L1001.74066 488.106262a76.516499 76.516499 0 0 0 0-107.401341z m-39.510338 67.891003L448.595929 962.508559a20.033411 20.033411 0 0 1-27.824181 0L250.487756 793.337534a25.320005 25.320005 0 0 1-2.504176-27.824181 114.357386 114.357386 0 0 0-8.069013-101.836505l22.259345-22.259345A27.824182 27.824182 0 0 0 222.663575 603.576616l-22.537588 22.259345a114.91387 114.91387 0 0 0-58.709023-16.694509 111.296726 111.296726 0 0 0-43.127481 8.625497 24.763522 24.763522 0 0 1-26.154731-2.504177l-11.129673-11.129672a20.589894 20.589894 0 0 1 0-27.824182l514.469118-514.74736a20.589894 20.589894 0 0 1 27.824182 0l11.129673 11.129673a24.763522 24.763522 0 0 1 2.504176 26.154731 114.357386 114.357386 0 0 0 149.137613 149.415855 25.320005 25.320005 0 0 1 27.824182 2.504176l169.171024 169.171024a20.589894 20.589894 0 0 1 0 27.824182z" fill="#6B400D" p-id="6437"></path><path d="M356.77613 469.742302l-39.232096 39.232096a27.824182 27.824182 0 0 0 0 39.510338 27.824182 27.824182 0 0 0 19.755169 8.069013 27.824182 27.824182 0 0 0 19.476927-8.069013l39.510338-39.510338a27.824182 27.824182 0 0 0 0-39.232096 27.824182 27.824182 0 0 0-39.510338 0zM490.610443 335.907989l-39.232096 39.510338a27.824182 27.824182 0 0 0 0 39.232096 27.824182 27.824182 0 0 0 39.232096 0l39.510338-39.232096a27.824182 27.824182 0 0 0-39.510338-39.510338z" fill="#6B400D" p-id="6438"></path></svg>