<?xml version="1.0" standalone="no"?><!DOCTYPE svg PUBLIC "-//W3C//DTD SVG 1.1//EN" "http://www.w3.org/Graphics/SVG/1.1/DTD/svg11.dtd"><svg t="1677208064402" class="icon" viewBox="0 0 1024 1024" version="1.1" xmlns="http://www.w3.org/2000/svg" p-id="3218" xmlns:xlink="http://www.w3.org/1999/xlink" width="300" height="300"><path d="M890.816496 435.374636a28.370357 28.370357 0 0 0-28.35448-28.354481H239.012713a28.362419 28.362419 0 0 0-28.346542 28.354481v360.702015c0 15.645767 12.700775 28.346543 28.338604 28.346543h623.457241c15.645767 0 28.354481-12.700775 28.35448-28.338605v-360.702015z" fill="#46A9F7" p-id="3219" data-spm-anchor-id="a313x.7781069.0.i1" class=""></path><path d="M655.471132 578.726698a28.759318 28.759318 0 1 0 57.518635 0 28.759318 28.759318 0 0 0-57.518635 0z" p-id="3220"></path><path d="M814.056186 279.067783H735.613023L322.123411 144.860279a91.683721 91.683721 0 0 0-71.362481 6.001116 91.644031 91.644031 0 0 0-45.627535 55.184869l-22.670883 75.117147c-57.812341 10.533705-101.788775 61.225674-101.788776 122.070325v352.843411c0 68.441302 55.677023 124.158016 124.165954 124.158016h609.256186c68.44924 0 124.165953-55.669085 124.165953-124.158016v-352.843411c-0.047628-68.441302-55.724651-124.165953-124.205643-124.165953z m-552.912372-56.153302a33.545922 33.545922 0 0 1 16.725333-20.241861 33.569736 33.569736 0 0 1 26.179473-2.190884l242.084713 78.586047H244.172403l16.971411-56.153302z m552.912372 598.825674H204.792062c-36.221023 0-65.670946-29.449922-65.670946-65.663008v-352.843411c0-36.221023 29.449922-65.670946 65.670946-65.670945h609.264124c36.221023 0 65.663008 29.449922 65.663008 65.670945v40.753613H693.938605c-74.299535 0-134.747287 60.447752-134.747287 134.739349 0 74.299535 60.45569 134.739349 134.747287 134.739349h185.780589v42.6111c0 36.221023-29.449922 65.663008-65.663008 65.663008z m65.663008-166.777054H693.938605c-42.02369 0-76.244341-34.212713-76.244341-76.236403s34.212713-76.244341 76.244341-76.244341h185.780589v152.488682z" p-id="3221"></path></svg>